<svg width="443" height="236" viewBox="0 0 443 236" fill="none" xmlns="http://www.w3.org/2000/svg">
<path d="M137.544 104.304C137.544 100.88 136.872 98.176 135.528 96.192C134.184 94.176 132.344 92.736 130.008 91.872C127.672 90.976 125 90.528 121.992 90.528H112.44V118.752H121.656C124.76 118.752 127.496 118.336 129.864 117.504C132.232 116.64 134.104 115.168 135.48 113.088C136.856 110.976 137.544 108.048 137.544 104.304ZM146.472 104.208C146.472 109.36 145.368 113.488 143.16 116.592C140.984 119.696 137.976 121.952 134.136 123.36C130.296 124.768 125.88 125.472 120.888 125.472H112.44V150H104.088V83.904H120.984C128.856 83.904 135.064 85.568 139.608 88.896C144.184 92.192 146.472 97.296 146.472 104.208ZM159.922 90.72V112.992H184.403V119.856H159.922V143.328H189.97V150H151.57V83.904H189.106L188.146 90.72H159.922Z" fill="white"/>
<rect x="189.5" y="80.5" width="134" height="76" rx="8.5" stroke="white" stroke-width="3"/>
<path d="M239.44 116.76C239.44 112.92 239.035 109.848 238.224 107.544C237.413 105.24 236.347 103.512 235.024 102.36C233.701 101.208 232.251 100.44 230.672 100.056C229.115 99.672 227.579 99.48 226.064 99.48H220.88V134.552H226.128C227.707 134.552 229.275 134.307 230.832 133.816C232.411 133.304 233.851 132.408 235.152 131.128C236.453 129.827 237.488 128.024 238.256 125.72C239.045 123.395 239.44 120.408 239.44 116.76ZM245.36 116.76C245.36 120.429 244.965 123.565 244.176 126.168C243.408 128.749 242.352 130.883 241.008 132.568C239.664 134.253 238.128 135.565 236.4 136.504C234.693 137.421 232.891 138.072 230.992 138.456C229.115 138.819 227.269 139 225.456 139H215.344V94.936H224.752C227.333 94.936 229.84 95.224 232.272 95.8C234.725 96.376 236.933 97.4427 238.896 99C240.88 100.536 242.448 102.733 243.6 105.592C244.773 108.451 245.36 112.173 245.36 116.76ZM250.775 99.48V114.328H267.095V118.904H250.775V134.552H270.807V139H245.207V94.936H270.231L269.591 99.48H250.775ZM283.678 132.696L295.582 94.936H301.182L286.43 139H280.67L265.918 94.936H271.902L283.678 132.696Z" fill="white"/>
</svg>
